<svg xmlns="http://www.w3.org/2000/svg" viewBox="0 0 1180 630" width="1180" height="630">
<style>text{font-family:'PingFang SC', 'Heiti SC', 'Hiragino Sans', 'Microsoft YaHei', 'Helvetica Neue', Arial, sans-serif;} .nm{font-weight:600;} .sub{font-weight:400;fill:#6a6a6a;} .lyr{font-weight:600;fill:#6a6a6a;}.alab{font-size:12px;fill:#5a5a5a;}</style>
<defs>
<marker id="ar" markerWidth="8" markerHeight="8" refX="7" refY="4" orient="auto"><polygon points="0 0, 8 4, 0 8" fill="#5a5a5a"/></marker>
<filter id="sh" x="-20%" y="-20%" width="140%" height="140%"><feDropShadow dx="0" dy="2" stdDeviation="5" flood-color="#0000000f"/></filter>
</defs>
<rect width="1180" height="630" fill="#f8f6f3"/>
<text x="455.0" y="42" text-anchor="middle" class="nm" font-size="24" font-weight="700" fill="#1a1a1a">FridgeTracker 系统架构</text>
<text x="455.0" y="66" text-anchor="middle" class="sub" font-size="13">本地冰箱食材保质期追踪：SwiftUI + SwiftData + WidgetKit，纯端上无后端</text>
<text x="18" y="134" class="lyr" font-size="13">界面</text>
<rect x="150" y="96" width="102" height="66" rx="12" fill="#a8c5e6" stroke="#4a4a4a" stroke-width="2.5" filter="url(#sh)"/>
<text x="201" y="127" text-anchor="middle" class="nm" font-size="13" fill="#1a1a1a">根导航</text>
<text x="201" y="144" text-anchor="middle" class="sub" font-size="9.5">ContentView.swift</text>
<rect x="277" y="96" width="102" height="66" rx="12" fill="#a8c5e6" stroke="#4a4a4a" stroke-width="2.5" filter="url(#sh)"/>
<text x="328" y="127" text-anchor="middle" class="nm" font-size="13" fill="#1a1a1a">食材列表</text>
<text x="328" y="144" text-anchor="middle" class="sub" font-size="9.0">FoodListView.swift</text>
<rect x="404" y="96" width="102" height="66" rx="12" fill="#a8c5e6" stroke="#4a4a4a" stroke-width="2.5" filter="url(#sh)"/>
<text x="455" y="127" text-anchor="middle" class="nm" font-size="13" fill="#1a1a1a">录入/OCR</text>
<text x="455" y="144" text-anchor="middle" class="sub" font-size="9.5">AddFoodView.swift</text>
<rect x="531" y="96" width="102" height="66" rx="12" fill="#a8c5e6" stroke="#4a4a4a" stroke-width="2.5" filter="url(#sh)"/>
<text x="582" y="127" text-anchor="middle" class="nm" font-size="13" fill="#1a1a1a">补货/历史</text>
<text x="582" y="144" text-anchor="middle" class="sub" font-size="7.5">ReplenishmentListView.swift</text>
<rect x="658" y="96" width="102" height="66" rx="12" fill="#a8c5e6" stroke="#4a4a4a" stroke-width="2.5" filter="url(#sh)"/>
<text x="709" y="127" text-anchor="middle" class="nm" font-size="13" fill="#1a1a1a">设置</text>
<text x="709" y="144" text-anchor="middle" class="sub" font-size="9.0">SettingsView.swift</text>
<text x="18" y="240" class="lyr" font-size="12.0">视图模型 / 业务逻辑</text>
<rect x="150" y="202" width="130" height="66" rx="12" fill="#9dd4c7" stroke="#4a4a4a" stroke-width="2.5" filter="url(#sh)"/>
<text x="215" y="233" text-anchor="middle" class="nm" font-size="13" fill="#1a1a1a">App 入口</text>
<text x="215" y="250" text-anchor="middle" class="sub" font-size="9.5">FridgeTrackerApp.swift</text>
<rect x="310" y="202" width="130" height="66" rx="12" fill="#9dd4c7" stroke="#4a4a4a" stroke-width="2.5" filter="url(#sh)"/>
<text x="375" y="233" text-anchor="middle" class="nm" font-size="13" fill="#1a1a1a">列表逻辑</text>
<text x="375" y="250" text-anchor="middle" class="sub" font-size="9.0">FoodListViewModel.swift</text>
<rect x="470" y="202" width="130" height="66" rx="12" fill="#9dd4c7" stroke="#4a4a4a" stroke-width="2.5" filter="url(#sh)"/>
<text x="535" y="233" text-anchor="middle" class="nm" font-size="13" fill="#1a1a1a">日期解析</text>
<text x="535" y="250" text-anchor="middle" class="sub" font-size="8.5">PackagingTextParser.swift</text>
<rect x="630" y="202" width="130" height="66" rx="12" fill="#9dd4c7" stroke="#4a4a4a" stroke-width="2.5" filter="url(#sh)"/>
<text x="695" y="233" text-anchor="middle" class="nm" font-size="13" fill="#1a1a1a">补货建议</text>
<text x="695" y="250" text-anchor="middle" class="sub" font-size="7.5">HistorySuggestionStore.swift</text>
<line x1="455.0" y1="162" x2="455.0" y2="202" stroke="#5a5a5a" stroke-width="2" marker-end="url(#ar)"/>
<text x="465.0" y="186" class="alab">用户操作</text>
<text x="18" y="346" class="lyr" font-size="8.5">数据模型 (SwiftData @Model)</text>
<rect x="150" y="308" width="130" height="66" rx="12" fill="#e8e6e3" stroke="#4a4a4a" stroke-width="2.5" filter="url(#sh)"/>
<text x="215" y="339" text-anchor="middle" class="nm" font-size="13" fill="#1a1a1a">食材</text>
<text x="215" y="356" text-anchor="middle" class="sub" font-size="11">FoodItem.swift</text>
<rect x="310" y="308" width="130" height="66" rx="12" fill="#e8e6e3" stroke="#4a4a4a" stroke-width="2.5" filter="url(#sh)"/>
<text x="375" y="339" text-anchor="middle" class="nm" font-size="13" fill="#1a1a1a">处置记录</text>
<text x="375" y="356" text-anchor="middle" class="sub" font-size="10.0">FoodDispositionRecord</text>
<rect x="470" y="308" width="130" height="66" rx="12" fill="#e8e6e3" stroke="#4a4a4a" stroke-width="2.5" filter="url(#sh)"/>
<text x="535" y="339" text-anchor="middle" class="nm" font-size="13" fill="#1a1a1a">补货项</text>
<text x="535" y="356" text-anchor="middle" class="sub" font-size="11">ReplenishmentItem</text>
<rect x="630" y="308" width="130" height="66" rx="12" fill="#e8e6e3" stroke="#4a4a4a" stroke-width="2.5" filter="url(#sh)"/>
<text x="695" y="339" text-anchor="middle" class="nm" font-size="13" fill="#1a1a1a">备份导入导出</text>
<text x="695" y="356" text-anchor="middle" class="sub" font-size="11">FoodBackup.swift</text>
<line x1="455.0" y1="268" x2="455.0" y2="308" stroke="#5a5a5a" stroke-width="2" marker-end="url(#ar)"/>
<text x="465.0" y="292" class="alab">读写 ModelContext</text>
<text x="18" y="452" class="lyr" font-size="13">系统集成</text>
<rect x="150" y="414" width="130" height="66" rx="12" fill="#9dd4c7" stroke="#4a4a4a" stroke-width="2.5" filter="url(#sh)"/>
<text x="215" y="445" text-anchor="middle" class="nm" font-size="13" fill="#1a1a1a">本地通知</text>
<text x="215" y="462" text-anchor="middle" class="sub" font-size="8.5">NotificationManager.swift</text>
<rect x="310" y="414" width="130" height="66" rx="12" fill="#9dd4c7" stroke="#4a4a4a" stroke-width="2.5" filter="url(#sh)"/>
<text x="375" y="445" text-anchor="middle" class="nm" font-size="13" fill="#1a1a1a">快照写入</text>
<text x="375" y="462" text-anchor="middle" class="sub" font-size="10.0">WidgetDataStore.swift</text>
<rect x="470" y="414" width="130" height="66" rx="12" fill="#f4e4c1" stroke="#4a4a4a" stroke-width="2.5" filter="url(#sh)"/>
<text x="535" y="445" text-anchor="middle" class="nm" font-size="13" fill="#1a1a1a">共享契约</text>
<text x="535" y="462" text-anchor="middle" class="sub" font-size="8.0">ExpiringFoodSnapshot.swift</text>
<rect x="630" y="414" width="130" height="66" rx="12" fill="#9dd4c7" stroke="#4a4a4a" stroke-width="2.5" filter="url(#sh)"/>
<text x="695" y="445" text-anchor="middle" class="nm" font-size="13" fill="#1a1a1a">桌面 Widget</text>
<text x="695" y="462" text-anchor="middle" class="sub" font-size="8.5">FridgeTrackerWidget.swift</text>
<line x1="455.0" y1="374" x2="455.0" y2="414" stroke="#5a5a5a" stroke-width="2" marker-end="url(#ar)"/>
<text x="465.0" y="398" class="alab">变更同步</text>
<text x="980.0" y="86" text-anchor="middle" class="lyr" font-size="14">外部服务</text>
<line x1="795.0" y1="106" x2="795.0" y2="470" stroke="#5a5a5a" stroke-width="1.4" stroke-dasharray="4,3"/>
<line x1="760" y1="129" x2="795.0" y2="129" stroke="#5a5a5a" stroke-width="1.1" stroke-dasharray="3,3"/>
<line x1="760" y1="235" x2="795.0" y2="235" stroke="#5a5a5a" stroke-width="1.1" stroke-dasharray="3,3"/>
<line x1="760" y1="341" x2="795.0" y2="341" stroke="#5a5a5a" stroke-width="1.1" stroke-dasharray="3,3"/>
<line x1="760" y1="447" x2="795.0" y2="447" stroke="#5a5a5a" stroke-width="1.1" stroke-dasharray="3,3"/>
<rect x="830" y="96" width="300" height="61" rx="12" fill="#f4e4c1" stroke="#4a4a4a" stroke-width="2.5" filter="url(#sh)"/>
<line x1="795.0" y1="126" x2="830" y2="126" stroke="#5a5a5a" stroke-width="1.4" stroke-dasharray="4,3" marker-end="url(#ar)"/>
<text x="980" y="124" text-anchor="middle" class="nm" font-size="14" fill="#1a1a1a">SwiftData</text>
<text x="980" y="143" text-anchor="middle" class="sub" font-size="11">ModelContainer 本地存储</text>
<rect x="830" y="177" width="300" height="61" rx="12" fill="#f4e4c1" stroke="#4a4a4a" stroke-width="2.5" filter="url(#sh)"/>
<line x1="795.0" y1="207" x2="830" y2="207" stroke="#5a5a5a" stroke-width="1.4" stroke-dasharray="4,3" marker-end="url(#ar)"/>
<text x="980" y="205" text-anchor="middle" class="nm" font-size="14" fill="#1a1a1a">WidgetKit</text>
<text x="980" y="224" text-anchor="middle" class="sub" font-size="11">小/中/大桌面组件</text>
<rect x="830" y="258" width="300" height="61" rx="12" fill="#f4e4c1" stroke="#4a4a4a" stroke-width="2.5" filter="url(#sh)"/>
<line x1="795.0" y1="288" x2="830" y2="288" stroke="#5a5a5a" stroke-width="1.4" stroke-dasharray="4,3" marker-end="url(#ar)"/>
<text x="980" y="286" text-anchor="middle" class="nm" font-size="14" fill="#1a1a1a">UserNotifications</text>
<text x="980" y="305" text-anchor="middle" class="sub" font-size="11">临期本地推送</text>
<rect x="830" y="338" width="300" height="61" rx="12" fill="#f4e4c1" stroke="#4a4a4a" stroke-width="2.5" filter="url(#sh)"/>
<line x1="795.0" y1="369" x2="830" y2="369" stroke="#5a5a5a" stroke-width="1.4" stroke-dasharray="4,3" marker-end="url(#ar)"/>
<text x="980" y="367" text-anchor="middle" class="nm" font-size="14" fill="#1a1a1a">Vision</text>
<text x="980" y="386" text-anchor="middle" class="sub" font-size="11">端上 OCR 识别日期</text>
<rect x="830" y="419" width="300" height="61" rx="12" fill="#f4e4c1" stroke="#4a4a4a" stroke-width="2.5" filter="url(#sh)"/>
<line x1="795.0" y1="450" x2="830" y2="450" stroke="#5a5a5a" stroke-width="1.4" stroke-dasharray="4,3" marker-end="url(#ar)"/>
<text x="980" y="448" text-anchor="middle" class="nm" font-size="14" fill="#1a1a1a">App Group</text>
<text x="980" y="467" text-anchor="middle" class="sub" font-size="11">group.com.congee.FridgeTracker</text>
<rect x="830" y="510" width="300" height="96" rx="8" fill="#ffffff" stroke="#4a4a4a" stroke-width="1.4"/>
<text x="845" y="532" class="nm" font-size="13" fill="#1a1a1a">图例</text>
<line x1="845" y1="548" x2="878" y2="548" stroke="#5a5a5a" stroke-width="2" marker-end="url(#ar)"/>
<text x="886" y="552" class="sub" font-size="12">数据 / 请求流</text>
<line x1="990" y1="548" x2="1023" y2="548" stroke="#5a5a5a" stroke-width="1.4" stroke-dasharray="4,3" marker-end="url(#ar)"/>
<text x="1031" y="552" class="sub" font-size="12">外部调用</text>
<rect x="845" y="568" width="16" height="12" rx="3" fill="#a8c5e6" stroke="#4a4a4a" stroke-width="1"/>
<text x="867" y="578" class="sub" font-size="11">采集源</text>
<rect x="910" y="568" width="16" height="12" rx="3" fill="#9dd4c7" stroke="#4a4a4a" stroke-width="1"/>
<text x="932" y="578" class="sub" font-size="11">处理</text>
<rect x="966" y="568" width="16" height="12" rx="3" fill="#9dd4c7" stroke="#4a4a4a" stroke-width="1"/>
<text x="988" y="578" class="sub" font-size="11">调度中枢</text>
<rect x="1040" y="568" width="16" height="12" rx="3" fill="#e8e6e3" stroke="#4a4a4a" stroke-width="1"/>
<text x="1062" y="578" class="sub" font-size="11">状态存储</text>
<rect x="845" y="588" width="16" height="12" rx="3" fill="#9dd4c7" stroke="#4a4a4a" stroke-width="1"/>
<text x="867" y="598" class="sub" font-size="11">投递/输出</text>
<rect x="928" y="588" width="16" height="12" rx="3" fill="#f4e4c1" stroke="#4a4a4a" stroke-width="1"/>
<text x="950" y="598" class="sub" font-size="11">外部服务</text>
</svg>